<svg width="81" height="50" viewBox="0 0 81 50" fill="none" xmlns="http://www.w3.org/2000/svg">
<path d="M0 0.124747V50H7.63295L57.5914 0.0375977H48.2241L7.80553 40.4579V0.0375977L0 0.124747Z" fill="black"/>
<path d="M14.4785 0.0871496V49.9624H22.1115L72.0717 0H62.7043L22.2858 40.4203V0L14.4785 0.0871496Z" fill="black"/>
<path d="M51.6046 49.9368L38.3242 33.204L43.8486 27.6777L62.045 49.9146L51.6046 49.9368Z" fill="black"/>
<path d="M69.824 49.8891L46.0879 22.7001L51.6123 17.1738L80.2986 49.9011L69.824 49.8891Z" fill="black"/>
<path d="M21.4736 49.9588L51.8824 49.9348L48.0634 45.186H26.2137L21.4736 49.9588Z" fill="black"/>
<path d="M48.7758 0.0412579L22.2544 0.0224609L22.251 4.70633H44.0186L48.7758 0.0412579Z" fill="black"/>
</svg>
