<svg width="1509" height="939" viewBox="0 0 1509 939" fill="none" xmlns="http://www.w3.org/2000/svg">
<path d="M0 2.34273V939H143.347L1081.57 0.706055H905.65L146.588 759.801V0.706055L0 2.34273Z" fill="white"/>
<path d="M271.9 1.63667V938.294H415.247L1353.5 0H1177.58L418.52 759.095V0L271.9 1.63667Z" fill="white"/>
<path d="M969.124 937.812L719.719 623.572L823.467 519.787L1165.2 937.395L969.124 937.812Z" fill="white"/>
<path d="M1311.3 936.914L865.537 426.305L969.285 322.521L1508.01 937.139L1311.3 936.914Z" fill="white"/>
<path d="M403.278 938.23L974.355 937.78L902.633 848.598H492.296L403.278 938.23Z" fill="white"/>
<path d="M916.015 0.770244L417.943 0.417236L417.879 88.3803H826.676L916.015 0.770244Z" fill="white"/>
</svg>
